<svg fill="#ffffff" version="1.1" id="Capa_1" xmlns="http://www.w3.org/2000/svg" xmlns:xlink="http://www.w3.org/1999/xlink" xml:space="preserve" viewBox="0 100.75 484.62 283.12" data-darkreader-inline-fill="">

<g id="SVGRepo_bgCarrier" stroke-width="0"/>

<g id="SVGRepo_tracerCarrier" stroke-linecap="round" stroke-linejoin="round"/>

<g id="SVGRepo_iconCarrier"> <g> <path d="M478.411,231.591L254.692,102.42c-3.827-2.212-8.54-2.212-12.371,0c-3.83,2.207-6.185,6.293-6.185,10.712v114.915 L18.556,102.42c-3.829-2.212-8.541-2.212-12.371,0C2.357,104.627,0,108.713,0,113.132v258.331c0,4.418,2.356,8.504,6.185,10.713 c1.914,1.105,4.047,1.658,6.188,1.658c2.137,0,4.27-0.553,6.184-1.658l217.581-125.617v114.904c0,4.418,2.354,8.504,6.185,10.713 c1.914,1.105,4.046,1.658,6.185,1.658s4.271-0.553,6.187-1.658l223.717-129.158c3.828-2.208,6.184-6.295,6.184-10.713 C484.595,237.884,482.239,233.801,478.411,231.591z M24.742,350.037V134.561l186.605,107.743L24.742,350.037z M260.878,350.037 V134.561l186.604,107.743L260.878,350.037z"/> </g> </g>

</svg>