<svg fill="none" xmlns="http://www.w3.org/2000/svg" viewBox="4.5 3.5 16.02 16">

<g id="SVGRepo_bgCarrier" stroke-width="0"/>

<g id="SVGRepo_tracerCarrier" stroke-linecap="round" stroke-linejoin="round"/>

<g id="SVGRepo_iconCarrier"> <path fill-rule="evenodd" clip-rule="evenodd" d="M11.7899 3.5463C11.9232 3.48457 12.0768 3.48457 12.2101 3.5463L17.2101 5.86209C17.3869 5.94395 17.5 6.12101 17.5 6.31579V12.1053C17.5 12.2837 17.4049 12.4486 17.2505 12.538L12.2505 15.4327C12.0956 15.5224 11.9044 15.5224 11.7495 15.4327L6.74948 12.538C6.59507 12.4486 6.5 12.2837 6.5 12.1053V6.31579C6.5 6.12101 6.61312 5.94395 6.78987 5.86209L11.7899 3.5463ZM7.5 7.12608L11.5 9.13309V14.1328L7.5 11.817V7.12608ZM12.5 14.1328L16.5 11.817V7.12608L12.5 9.13309V14.1328ZM12 8.26515L15.8492 6.33381L12 4.55103L8.15081 6.33381L12 8.26515Z" fill="#ffffff" data-darkreader-inline-fill=""/> <path d="M19.9903 14.9019C19.9612 14.7563 19.8688 14.6311 19.7381 14.5604C19.6075 14.4896 19.4522 14.4806 19.3143 14.5358L16.8143 15.5358C16.5579 15.6383 16.4332 15.9293 16.5358 16.1857C16.6383 16.4421 16.9293 16.5668 17.1857 16.4642L18.4099 15.9745C18.2077 16.5108 17.6606 17.0604 16.7261 17.5277C15.5424 18.1195 13.8722 18.5 12 18.5C10.1278 18.5 8.45755 18.1195 7.27386 17.5277C6.06026 16.9209 5.5 16.1751 5.5 15.5C5.5 15.2239 5.27614 15 5 15C4.72386 15 4.5 15.2239 4.5 15.5C4.5 16.7579 5.50674 17.7621 6.82665 18.4221C8.17646 19.097 10.0062 19.5 12 19.5C13.9938 19.5 15.8235 19.097 17.1734 18.4221C18.1301 17.9437 18.9223 17.2844 19.2858 16.4787L19.5097 17.5981C19.5639 17.8688 19.8273 18.0444 20.0981 17.9903C20.3688 17.9361 20.5444 17.6727 20.4903 17.4019L19.9903 14.9019Z" fill="#ffffff" data-darkreader-inline-fill=""/> </g>

</svg>